<svg class="css-ze2te4 css-qd6ojx" viewBox="0 0 64.81481481481481 75.60275781190691" id="SVG 67" xmlns="http://www.w3.org/2000/svg" xmlns:xlink="http://www.w3.org/1999/xlink"><g transform="translate(-9.013143735441052, -3.767896545101973) scale(0.8313674636686753)" class="css-1mun45u" fill="#111111"><path xmlns="http://www.w3.org/2000/svg" d="M25.44,88.28q.58,0,1.26,0L38.15,95.4h0a.48.48,0,0,0,.24.07H82.67a.5.5,0,0,0,.49-.4l1.65-7.7s0,0,0,0h0a.22.22,0,0,0,0-.08L88.75,69a2.29,2.29,0,0,0-2.24-2.78H80c-2.55-8.73-5.45-17.16-7-18.74-2.28-2.28-11.09-5.07-15.6-6.39,1.83-2.3,2.85-5.67,3.4-9.13A6.1,6.1,0,0,0,63,26.83,7.32,7.32,0,0,0,62,23a4.63,4.63,0,0,0-.66-.83c0-.35,0-.67,0-1,.41-.77,2.28-4.57.85-8.5C61.07,9.71,58.43,7.46,54.3,6c-12.51-4.49-17.87,2.6-18.92,4.25a2,2,0,0,0-1.14.27c-1.15.67-1.92,2.43-2.29,5.25a18.31,18.31,0,0,0,1.42,10.08A2.38,2.38,0,0,0,33,27.26a7.38,7.38,0,0,0,2.78,5.36,1.32,1.32,0,0,0,1.4.26,1.49,1.49,0,0,0,.62-.6A21.91,21.91,0,0,0,40.73,38l-.32,2.47c-2.47.71-13.12,3.79-15.2,4.83C22.71,46.56,10.47,73,10.85,82.06h0v0C11.68,88.54,20.24,88.38,25.44,88.28Zm.22-42.09c1.87-.93,11.57-3.76,14.61-4.64l-.15,1.13a.46.46,0,0,0,0,.26,9.54,9.54,0,0,0,2.26,3,10.36,10.36,0,0,0,6.31,2.36h0a9.34,9.34,0,0,0,8.08-5.39.46.46,0,0,0,0-.26l-.1-.72c4.34,1.26,13.31,4.07,15.47,6.22,1.42,1.43,4.22,9.56,6.71,18H69.36a8.76,8.76,0,0,0-1.07-3.74.49.49,0,0,0-.68-.17.5.5,0,0,0-.17.69,7.87,7.87,0,0,1,.92,3.22H55.76a.5.5,0,0,0-.5.5.51.51,0,0,0,.5.5H86.51a1.3,1.3,0,0,1,1.26,1.57l-5.5,25.7H39l.61-3,.56-2.84h0l4-20.34a1.3,1.3,0,0,1,1.27-1h5.38a.51.51,0,0,0,.5-.5.5.5,0,0,0-.5-.5H45.5a2.3,2.3,0,0,0-2.25,1.85l-2.59,13c-1.89-.57-5.22-1.59-7.79-2.42l-.78-.29,1.2-13.13a.49.49,0,0,0-.43-.54.49.49,0,0,0-.56.4,68.82,68.82,0,0,1-3.37,11.7,31.37,31.37,0,0,0-3.18-1.57.5.5,0,0,0-.38.93,32.46,32.46,0,0,1,3.29,1.62,24.15,24.15,0,0,0,3.9,1.83c2.62.85,6,1.89,7.9,2.45L39.29,88l-2.4,0c-3.58-.37-8.5-.8-11.55-.75-4.76.1-12.72.25-13.48-5.24a8.11,8.11,0,0,1,8.33-6.89,13.18,13.18,0,0,1,1.41.07.5.5,0,1,0,.1-1,12.51,12.51,0,0,0-1.51-.08,8.77,8.77,0,0,0-8,4.39C14,67.65,24,47,25.66,46.19ZM37.79,29.94h0a.5.5,0,0,0-.46.46c0,.65-.29,1.46-.54,1.57-.06,0-.21,0-.38-.15A6.4,6.4,0,0,1,34,27.26a1.17,1.17,0,0,1,.29-1,1.61,1.61,0,0,1,1.21-.43,1.14,1.14,0,0,1,.62.34l.09.11.65,1.43a.53.53,0,0,0,.46.3h.1l2-.41a.5.5,0,0,0,.4-.51c-.05-1.19-.1-4.51.3-5.56s4.31-3.84,8.79-4.27a13.84,13.84,0,0,1-5.92,4.26.48.48,0,0,0-.33.51.49.49,0,0,0,.4.45c.08,0,.69.13,1.62.28a4.7,4.7,0,0,0-.6.66A6.59,6.59,0,0,0,42.73,28a6.13,6.13,0,0,0,5.83,5.85l.43,0a5.52,5.52,0,0,0,3.93-2.2,6.55,6.55,0,0,0,1.29-3.85,1.07,1.07,0,0,1,1.32-.34,7.08,7.08,0,0,0,1,3.19,3.29,3.29,0,0,0,2.72,1.73h0a2.6,2.6,0,0,0,.4,0c-.85,5-2.72,9.55-6.63,10.46a9.18,9.18,0,0,1-7.2-1.27c-4-2.5-6.7-7.57-7.52-11.23A.51.51,0,0,0,37.79,29.94ZM32.94,15.88c.42-3.23,1.29-4.2,1.77-4.49a.92.92,0,0,1,.73-.14.49.49,0,0,0,.63-.23c.19-.37,4.73-8.83,17.89-4.1C57.8,8.3,60.23,10.33,61.19,13c1.4,3.85-.83,7.76-.87,7.83a1.74,1.74,0,0,1-.41.5,3.51,3.51,0,0,0-.65-.09h0c-2,0-3.6,2.25-3.75,5.19a2,2,0,0,0-1.37.18,6.71,6.71,0,0,0-1.22-3c.9,0,1.79,0,2.64,0A.5.5,0,0,0,56,23a.51.51,0,0,0-.53-.47,34.94,34.94,0,0,1-3.55,0,5.47,5.47,0,0,0-4-1.31,5.2,5.2,0,0,0-2.22.69l-.88-.13A14.74,14.74,0,0,0,50.32,17a.49.49,0,0,0,0-.51.48.48,0,0,0-.43-.26h0c-5,.05-10.13,3.35-10.75,5-.47,1.22-.42,4.34-.38,5.53L37.6,27l-.51-1.13a.24.24,0,0,0-.06-.09,2.2,2.2,0,0,0-1.69-1,2.09,2.09,0,0,0-1.2.37A17.89,17.89,0,0,1,32.94,15.88Zm16,17A5,5,0,0,1,43.75,28a5.6,5.6,0,0,1,1.1-3.87,4.38,4.38,0,0,1,6.64-.54,5.77,5.77,0,0,1,.61,7.51A4.47,4.47,0,0,1,48.91,32.84Zm10.32-1.46h0a2.33,2.33,0,0,1-1.85-1.26,6.25,6.25,0,0,1-.85-3.32c0-2.47,1.26-4.55,2.73-4.55h0a2.31,2.31,0,0,1,1.85,1.26A6.24,6.24,0,0,1,62,26.82C62,29.29,60.7,31.38,59.23,31.38Zm-14,11a10.4,10.4,0,0,0,5.58,1.68,10.81,10.81,0,0,0,2.38-.28,6.79,6.79,0,0,0,2.61-1.24l0,.1a8.35,8.35,0,0,1-7.15,4.66,9.5,9.5,0,0,1-5.62-2.11,8.86,8.86,0,0,1-2-2.55l.46-3.54A16.14,16.14,0,0,0,45.27,42.41ZM31.13,78c-.44-.21-.88-.44-1.32-.67A47.44,47.44,0,0,0,31.68,72Zm8,11-.35,1.77-3.64-1.9,1.74.16Zm-6.63-.38,6.08,3.17-.47,2.38-9.36-5.81C29.9,88.42,31.19,88.51,32.46,88.62Z"></path><path xmlns="http://www.w3.org/2000/svg" d="M65.23,86.21a4,4,0,0,0,1.08.14,4.5,4.5,0,0,0,2.58-.83.5.5,0,0,0-.56-.83,3.33,3.33,0,0,1-5-1.26,4.5,4.5,0,0,1-.3-3.18,3.69,3.69,0,1,1,7.08,1.86c0,.15-.08.29-.13.43a.5.5,0,1,0,.94.34c.06-.17.11-.34.16-.52A4.69,4.69,0,1,0,62,80a5.5,5.5,0,0,0,.38,3.88A4.36,4.36,0,0,0,65.23,86.21Z"></path><path xmlns="http://www.w3.org/2000/svg" d="M55,34.56a.82.82,0,0,1-.62-.07.5.5,0,0,0-.5.87,1.86,1.86,0,0,0,.91.24,1.45,1.45,0,0,0,.86-.27c.22-.16.82-.59-.29-4.61a.5.5,0,0,0-1,.27A12.16,12.16,0,0,1,55,34.56Z"></path><path xmlns="http://www.w3.org/2000/svg" d="M48.92,38.73c1.21-.15,4.6-.45,5.73,0a.51.51,0,0,0,.17,0,.48.48,0,0,0,.47-.33.5.5,0,0,0-.29-.64c-1.57-.58-5.74-.09-6.2,0a.51.51,0,0,0-.44.56A.5.5,0,0,0,48.92,38.73Z"></path></g></svg>