<svg viewBox="0 0 370.18518518518516 75.60275781190691" preserveAspectRatio="xMidYMid meet" class="css-98pqax" id="gbhafbcb" xmlns="http://www.w3.org/2000/svg" xmlns:xlink="http://www.w3.org/1999/xlink"><defs id="SvgjsDefs2012"></defs><g id="SvgjsG2013" featurekey="symbolFeature-0" transform="matrix(0.8313674636686753,0,0,0.8313674636686753,-9.013143735441052,-3.767896545101973)" fill="#111"><path xmlns="http://www.w3.org/2000/svg" d="M25.44,88.28q.58,0,1.26,0L38.15,95.4h0a.48.48,0,0,0,.24.07H82.67a.5.5,0,0,0,.49-.4l1.65-7.7s0,0,0,0h0a.22.22,0,0,0,0-.08L88.75,69a2.29,2.29,0,0,0-2.24-2.78H80c-2.55-8.73-5.45-17.16-7-18.74-2.28-2.28-11.09-5.07-15.6-6.39,1.83-2.3,2.85-5.67,3.4-9.13A6.1,6.1,0,0,0,63,26.83,7.32,7.32,0,0,0,62,23a4.63,4.63,0,0,0-.66-.83c0-.35,0-.67,0-1,.41-.77,2.28-4.57.85-8.5C61.07,9.71,58.43,7.46,54.3,6c-12.51-4.49-17.87,2.6-18.92,4.25a2,2,0,0,0-1.14.27c-1.15.67-1.92,2.43-2.29,5.25a18.31,18.31,0,0,0,1.42,10.08A2.38,2.38,0,0,0,33,27.26a7.38,7.38,0,0,0,2.78,5.36,1.32,1.32,0,0,0,1.4.26,1.49,1.49,0,0,0,.62-.6A21.91,21.91,0,0,0,40.73,38l-.32,2.47c-2.47.71-13.12,3.79-15.2,4.83C22.71,46.56,10.47,73,10.85,82.06h0v0C11.68,88.54,20.24,88.38,25.44,88.28Zm.22-42.09c1.87-.93,11.57-3.76,14.61-4.64l-.15,1.13a.46.46,0,0,0,0,.26,9.54,9.54,0,0,0,2.26,3,10.36,10.36,0,0,0,6.31,2.36h0a9.34,9.34,0,0,0,8.08-5.39.46.46,0,0,0,0-.26l-.1-.72c4.34,1.26,13.31,4.07,15.47,6.22,1.42,1.43,4.22,9.56,6.71,18H69.36a8.76,8.76,0,0,0-1.07-3.74.49.49,0,0,0-.68-.17.5.5,0,0,0-.17.69,7.87,7.87,0,0,1,.92,3.22H55.76a.5.5,0,0,0-.5.5.51.51,0,0,0,.5.5H86.51a1.3,1.3,0,0,1,1.26,1.57l-5.5,25.7H39l.61-3,.56-2.84h0l4-20.34a1.3,1.3,0,0,1,1.27-1h5.38a.51.51,0,0,0,.5-.5.5.5,0,0,0-.5-.5H45.5a2.3,2.3,0,0,0-2.25,1.85l-2.59,13c-1.89-.57-5.22-1.59-7.79-2.42l-.78-.29,1.2-13.13a.49.49,0,0,0-.43-.54.49.49,0,0,0-.56.4,68.82,68.82,0,0,1-3.37,11.7,31.37,31.37,0,0,0-3.18-1.57.5.5,0,0,0-.38.93,32.46,32.46,0,0,1,3.29,1.62,24.15,24.15,0,0,0,3.9,1.83c2.62.85,6,1.89,7.9,2.45L39.29,88l-2.4,0c-3.58-.37-8.5-.8-11.55-.75-4.76.1-12.72.25-13.48-5.24a8.11,8.11,0,0,1,8.33-6.89,13.18,13.18,0,0,1,1.41.07.5.5,0,1,0,.1-1,12.51,12.51,0,0,0-1.51-.08,8.77,8.77,0,0,0-8,4.39C14,67.65,24,47,25.66,46.19ZM37.79,29.94h0a.5.5,0,0,0-.46.46c0,.65-.29,1.46-.54,1.57-.06,0-.21,0-.38-.15A6.4,6.4,0,0,1,34,27.26a1.17,1.17,0,0,1,.29-1,1.61,1.61,0,0,1,1.21-.43,1.14,1.14,0,0,1,.62.34l.09.11.65,1.43a.53.53,0,0,0,.46.3h.1l2-.41a.5.5,0,0,0,.4-.51c-.05-1.19-.1-4.51.3-5.56s4.31-3.84,8.79-4.27a13.84,13.84,0,0,1-5.92,4.26.48.48,0,0,0-.33.51.49.49,0,0,0,.4.45c.08,0,.69.13,1.62.28a4.7,4.7,0,0,0-.6.66A6.59,6.59,0,0,0,42.73,28a6.13,6.13,0,0,0,5.83,5.85l.43,0a5.52,5.52,0,0,0,3.93-2.2,6.55,6.55,0,0,0,1.29-3.85,1.07,1.07,0,0,1,1.32-.34,7.08,7.08,0,0,0,1,3.19,3.29,3.29,0,0,0,2.72,1.73h0a2.6,2.6,0,0,0,.4,0c-.85,5-2.72,9.55-6.63,10.46a9.18,9.18,0,0,1-7.2-1.27c-4-2.5-6.7-7.57-7.52-11.23A.51.51,0,0,0,37.79,29.94ZM32.94,15.88c.42-3.23,1.29-4.2,1.77-4.49a.92.92,0,0,1,.73-.14.49.49,0,0,0,.63-.23c.19-.37,4.73-8.83,17.89-4.1C57.8,8.3,60.23,10.33,61.19,13c1.4,3.85-.83,7.76-.87,7.83a1.74,1.74,0,0,1-.41.5,3.51,3.51,0,0,0-.65-.09h0c-2,0-3.6,2.25-3.75,5.19a2,2,0,0,0-1.37.18,6.71,6.71,0,0,0-1.22-3c.9,0,1.79,0,2.64,0A.5.5,0,0,0,56,23a.51.51,0,0,0-.53-.47,34.94,34.94,0,0,1-3.55,0,5.47,5.47,0,0,0-4-1.31,5.2,5.2,0,0,0-2.22.69l-.88-.13A14.74,14.74,0,0,0,50.32,17a.49.49,0,0,0,0-.51.48.48,0,0,0-.43-.26h0c-5,.05-10.13,3.35-10.75,5-.47,1.22-.42,4.34-.38,5.53L37.6,27l-.51-1.13a.24.24,0,0,0-.06-.09,2.2,2.2,0,0,0-1.69-1,2.09,2.09,0,0,0-1.2.37A17.89,17.89,0,0,1,32.94,15.88Zm16,17A5,5,0,0,1,43.75,28a5.6,5.6,0,0,1,1.1-3.87,4.38,4.38,0,0,1,6.64-.54,5.77,5.77,0,0,1,.61,7.51A4.47,4.47,0,0,1,48.91,32.84Zm10.32-1.46h0a2.33,2.33,0,0,1-1.85-1.26,6.25,6.25,0,0,1-.85-3.32c0-2.47,1.26-4.55,2.73-4.55h0a2.31,2.31,0,0,1,1.85,1.26A6.24,6.24,0,0,1,62,26.82C62,29.29,60.7,31.38,59.23,31.38Zm-14,11a10.4,10.4,0,0,0,5.58,1.68,10.81,10.81,0,0,0,2.38-.28,6.79,6.79,0,0,0,2.61-1.24l0,.1a8.35,8.35,0,0,1-7.15,4.66,9.5,9.5,0,0,1-5.62-2.11,8.86,8.86,0,0,1-2-2.55l.46-3.54A16.14,16.14,0,0,0,45.27,42.41ZM31.13,78c-.44-.21-.88-.44-1.32-.67A47.44,47.44,0,0,0,31.68,72Zm8,11-.35,1.77-3.64-1.9,1.74.16Zm-6.63-.38,6.08,3.17-.47,2.38-9.36-5.81C29.9,88.42,31.19,88.51,32.46,88.62Z"></path><path xmlns="http://www.w3.org/2000/svg" d="M65.23,86.21a4,4,0,0,0,1.08.14,4.5,4.5,0,0,0,2.58-.83.5.5,0,0,0-.56-.83,3.33,3.33,0,0,1-5-1.26,4.5,4.5,0,0,1-.3-3.18,3.69,3.69,0,1,1,7.08,1.86c0,.15-.08.29-.13.43a.5.5,0,1,0,.94.34c.06-.17.11-.34.16-.52A4.69,4.69,0,1,0,62,80a5.5,5.5,0,0,0,.38,3.88A4.36,4.36,0,0,0,65.23,86.21Z"></path><path xmlns="http://www.w3.org/2000/svg" d="M55,34.56a.82.82,0,0,1-.62-.07.5.5,0,0,0-.5.87,1.86,1.86,0,0,0,.91.24,1.45,1.45,0,0,0,.86-.27c.22-.16.82-.59-.29-4.61a.5.5,0,0,0-1,.27A12.16,12.16,0,0,1,55,34.56Z"></path><path xmlns="http://www.w3.org/2000/svg" d="M48.92,38.73c1.21-.15,4.6-.45,5.73,0a.51.51,0,0,0,.17,0,.48.48,0,0,0,.47-.33.5.5,0,0,0-.29-.64c-1.57-.58-5.74-.09-6.2,0a.51.51,0,0,0-.44.56A.5.5,0,0,0,48.92,38.73Z"></path></g><g id="SvgjsG2014" featurekey="nameFeature-0" transform="matrix(1.1100154533714484,0,0,1.1100154533714484,80.51553761072307,10.32263903959407)" fill="#111"><path d="M25.4 40 l-3.72 0 l-8.64 -11.8 l-5.92 0 l0 11.8 l-3.08 0 l0 -29.16 l10.12 0 c3.44 0 6.2 0.96 7.8 2.56 s2.44 3.6 2.44 5.96 c0 4.92 -3.68 7.76 -8 8.32 z M7.12 13.719999999999999 l0 11.68 l6.76 0 c2.56 0 4.56 -0.72 5.72 -1.88 c1.12 -1.12 1.68 -2.52 1.68 -4.08 c0 -2.88 -1.76 -5.72 -7.32 -5.72 l-6.84 0 z M52.32 40 l-3.2 -7.44 l-15.88 0 l-3.2 7.44 l-3.12 0 l12.56 -29.16 l3.48 0 l12.6 29.16 l-3.24 0 z M47.96 29.759999999999998 l-6.8 -15.76 l-6.76 15.76 l13.56 0 z M69 28.6 l-6.2 0 l0 11.4 l-3.08 0 l0 -29.16 l9.76 0 c7.12 -0.04 10.24 4.24 10.24 8.76 c0 2.52 -0.96 4.72 -2.68 6.36 c-1.76 1.64 -4.6 2.64 -8.04 2.64 z M69.24 13.719999999999999 l-6.44 0 l0 12.04 l6.28 0 c2.6 0 4.64 -0.76 5.8 -1.96 c1.16 -1.16 1.72 -2.6 1.72 -4.12 c0 -2.84 -1.64 -5.96 -7.36 -5.96 z M85.08 40 l0 -29.16 l3.08 0 l0 29.16 l-3.08 0 z M96.24 40 l0 -29.16 l8.68 0 c2.24 0 4.32 0.36 6.24 1.12 c1.92 0.72 3.56 1.76 4.88 3.04 c2.68 2.6 4.28 6.28 4.28 10.36 c0 2.12 -0.4 4.12 -1.2 5.96 s-1.92 3.36 -3.28 4.64 c-2.76 2.52 -6.68 4.04 -10.92 4.04 l-8.68 0 z M99.32 13.719999999999999 l0 23.4 l5.48 0 c2.44 0 4.6 -0.52 6.44 -1.52 c1.88 -1 3.36 -2.36 4.36 -4.12 c1.04 -1.76 1.56 -3.8 1.56 -6.04 c0 -3.32 -1.24 -6.28 -3.36 -8.4 c-2.08 -2.08 -5.32 -3.32 -9 -3.32 l-5.48 0 z M146.32 13.719999999999999 l0 26.28 l-3.04 0 l0 -26.28 l-9.76 0 l0 -2.88 l22.56 0 l0 2.88 l-9.76 0 z M160.92 40 l0 -29.16 l18.24 0 l0 2.84 l-15.16 0 l0 10.08 l13.88 0 l0 2.84 l-13.88 0 l0 10.56 l15.32 0 l0 2.84 l-18.4 0 z M193.72 40.28 c-2.76 0 -5.4 -1.04 -7.12 -2.56 c-1.8 -1.56 -2.96 -3.64 -3.2 -5.68 l2.88 -0.8 c0.32 1.72 1.2 3.16 2.64 4.36 c1.4 1.2 3 1.8 4.8 1.8 c1.68 0 3.24 -0.4 4.48 -1.28 c1.24 -0.84 2.04 -2.28 2.04 -4.04 c0 -2.04 -1.08 -3.36 -2.44 -4.16 c-0.96 -0.56 -1.8 -0.8 -2.76 -1 l-3.84 -0.76 c-0.8 -0.16 -1.64 -0.44 -2.56 -0.84 c-0.92 -0.44 -1.72 -0.96 -2.4 -1.64 c-1.36 -1.32 -2.04 -3 -2.04 -5.04 c0 -1.6 0.44 -3.04 1.32 -4.28 c0.88 -1.28 2 -2.2 3.4 -2.88 c1.4 -0.64 2.88 -0.96 4.52 -0.96 c6.28 0 9.04 3.88 9.64 7 l-2.8 0.88 c-0.48 -2.08 -2.36 -5.04 -6.88 -5.04 c-3.12 -0.08 -6.16 2.12 -6.12 5.16 c0 2.24 1.4 4.04 4.24 4.6 l3.68 0.72 c2.48 0.48 4.4 1.32 5.68 2.56 c0.88 0.8 1.52 1.72 1.92 2.68 c0.4 1 0.6 1.88 0.6 2.68 c0.04 5.12 -4.28 8.64 -9.68 8.52 z M219.07999999999998 13.719999999999999 l0 26.28 l-3.04 0 l0 -26.28 l-9.76 0 l0 -2.88 l22.56 0 l0 2.88 l-9.76 0 z M260.96 25.36 c0 2.76 -0.64 5.28 -1.88 7.56 c-1.28 2.28 -3.04 4.08 -5.28 5.4 c-2.28 1.32 -4.76 2 -7.56 2 c-2.04 0 -3.96 -0.4 -5.8 -1.16 c-1.8 -0.76 -3.36 -1.8 -4.64 -3.16 c-1.28 -1.28 -2.28 -2.84 -3.04 -4.68 c-0.72 -1.84 -1.12 -3.76 -1.12 -5.8 c0 -2.76 0.64 -5.28 1.92 -7.56 c1.24 -2.28 3 -4.12 5.28 -5.44 c2.24 -1.32 4.76 -1.96 7.52 -1.96 c2.04 0 3.96 0.36 5.8 1.12 c1.8 0.8 3.36 1.84 4.64 3.12 c1.28 1.36 2.32 2.92 3.04 4.72 c0.76 1.84 1.12 3.76 1.12 5.84 z M257.8 25.52 c0 -3.28 -1.2 -6.32 -3.2 -8.52 s-5 -3.6 -8.36 -3.6 c-2.16 0 -4.12 0.56 -5.88 1.6 c-1.76 1.12 -3.12 2.56 -4.08 4.36 c-0.96 1.84 -1.44 3.84 -1.44 6 c0 3.24 1.2 6.32 3.2 8.48 c2 2.2 5 3.6 8.32 3.6 c2.16 0 4.12 -0.56 5.88 -1.64 c1.8 -1.04 3.16 -2.52 4.12 -4.32 s1.44 -3.8 1.44 -5.96 z"></path></g></svg>